<svg width="16" height="16" viewBox="0 0 16 16" fill="none" xmlns="http://www.w3.org/2000/svg">
<path d="M8 2.5C6.81331 2.5 5.65327 2.8519 4.66658 3.51119C3.67988 4.17047 2.91085 5.10755 2.45672 6.2039C2.0026 7.30026 1.88378 8.50666 2.11529 9.67055C2.3468 10.8344 2.91824 11.9035 3.75736 12.7426C4.59647 13.5818 5.66557 14.1532 6.82946 14.3847C7.99334 14.6162 9.19974 14.4974 10.2961 14.0433C11.3925 13.5892 12.3295 12.8201 12.9888 11.8334C13.6481 10.8467 14 9.68669 14 8.5C13.9982 6.90926 13.3655 5.3842 12.2406 4.25937C11.1158 3.13455 9.59074 2.50182 8 2.5ZM8 13.5C7.01109 13.5 6.04439 13.2068 5.22215 12.6574C4.3999 12.1079 3.75904 11.3271 3.3806 10.4134C3.00216 9.49979 2.90315 8.49446 3.09607 7.52455C3.289 6.55465 3.7652 5.66373 4.46447 4.96447C5.16373 4.26521 6.05464 3.789 7.02455 3.59608C7.99445 3.40315 8.99979 3.50217 9.91342 3.88061C10.827 4.25904 11.6079 4.89991 12.1573 5.72215C12.7068 6.5444 13 7.5111 13 8.5C12.9985 9.82563 12.4712 11.0965 11.5339 12.0339C10.5965 12.9713 9.32562 13.4985 8 13.5ZM3.85375 2.35375L1.85375 4.35375C1.75993 4.44757 1.63268 4.50028 1.5 4.50028C1.36732 4.50028 1.24007 4.44757 1.14625 4.35375C1.05243 4.25993 0.999722 4.13269 0.999722 4C0.999722 3.86732 1.05243 3.74007 1.14625 3.64625L3.14625 1.64625C3.24007 1.55243 3.36732 1.49973 3.5 1.49973C3.63268 1.49973 3.75993 1.55243 3.85375 1.64625C3.94757 1.74007 4.00028 1.86732 4.00028 2C4.00028 2.13269 3.94757 2.25993 3.85375 2.35375ZM14.8538 4.35375C14.8073 4.40024 14.7522 4.43712 14.6915 4.46228C14.6308 4.48745 14.5657 4.5004 14.5 4.5004C14.4343 4.5004 14.3692 4.48745 14.3085 4.46228C14.2478 4.43712 14.1927 4.40024 14.1462 4.35375L12.1462 2.35375C12.0524 2.25993 11.9997 2.13269 11.9997 2C11.9997 1.86732 12.0524 1.74007 12.1462 1.64625C12.2401 1.55243 12.3673 1.49973 12.5 1.49973C12.6327 1.49973 12.7599 1.55243 12.8538 1.64625L14.8538 3.64625C14.9002 3.69269 14.9371 3.74783 14.9623 3.80853C14.9874 3.86923 15.0004 3.9343 15.0004 4C15.0004 4.06571 14.9874 4.13077 14.9623 4.19147C14.9371 4.25217 14.9002 4.30732 14.8538 4.35375ZM11.5 8C11.6326 8 11.7598 8.05268 11.8536 8.14645C11.9473 8.24022 12 8.36739 12 8.5C12 8.63261 11.9473 8.75979 11.8536 8.85356C11.7598 8.94733 11.6326 9 11.5 9H8C7.86739 9 7.74021 8.94733 7.64645 8.85356C7.55268 8.75979 7.5 8.63261 7.5 8.5V5C7.5 4.8674 7.55268 4.74022 7.64645 4.64645C7.74021 4.55268 7.86739 4.5 8 4.5C8.13261 4.5 8.25979 4.55268 8.35355 4.64645C8.44732 4.74022 8.5 4.8674 8.5 5V8H11.5Z" fill="#F5C85C"/>
</svg>
