<svg width="40" height="40" viewBox="0 0 40 40" fill="none" xmlns="http://www.w3.org/2000/svg">
<rect width="40" height="40" rx="20" fill="white"/>
<path d="M29 20C29 20.1989 28.921 20.3897 28.7803 20.5303C28.6397 20.671 28.4489 20.75 28.25 20.75H13.5603L19.0306 26.2194C19.1003 26.2891 19.1556 26.3718 19.1933 26.4628C19.231 26.5539 19.2504 26.6515 19.2504 26.75C19.2504 26.8485 19.231 26.9461 19.1933 27.0372C19.1556 27.1282 19.1003 27.2109 19.0306 27.2806C18.9609 27.3503 18.8782 27.4056 18.7872 27.4433C18.6961 27.481 18.5985 27.5004 18.5 27.5004C18.4015 27.5004 18.3039 27.481 18.2128 27.4433C18.1218 27.4056 18.0391 27.3503 17.9694 27.2806L11.2194 20.5306C11.1496 20.461 11.0943 20.3783 11.0566 20.2872C11.0188 20.1962 10.9994 20.0986 10.9994 20C10.9994 19.9014 11.0188 19.8038 11.0566 19.7128C11.0943 19.6217 11.1496 19.539 11.2194 19.4694L17.9694 12.7194C18.1101 12.5786 18.301 12.4996 18.5 12.4996C18.699 12.4996 18.8899 12.5786 19.0306 12.7194C19.1714 12.8601 19.2504 13.051 19.2504 13.25C19.2504 13.449 19.1714 13.6399 19.0306 13.7806L13.5603 19.25H28.25C28.4489 19.25 28.6397 19.329 28.7803 19.4697C28.921 19.6103 29 19.8011 29 20Z" fill="#040404"/>
</svg>
