<svg width="20" height="20" viewBox="0 0 20 20" fill="none" xmlns="http://www.w3.org/2000/svg">
<path d="M17.5 8.75001H2.5C2.33424 8.75001 2.17527 8.81586 2.05806 8.93307C1.94085 9.05028 1.875 9.20925 1.875 9.37501C1.87775 10.8614 2.28679 12.3187 3.0579 13.5893C3.82901 14.86 4.93283 15.8957 6.25 16.5844V16.875C6.25 17.2065 6.3817 17.5245 6.61612 17.7589C6.85054 17.9933 7.16848 18.125 7.5 18.125H12.5C12.8315 18.125 13.1495 17.9933 13.3839 17.7589C13.6183 17.5245 13.75 17.2065 13.75 16.875V16.5844C15.0672 15.8957 16.171 14.86 16.9421 13.5893C17.7132 12.3187 18.1223 10.8614 18.125 9.37501C18.125 9.20925 18.0592 9.05028 17.9419 8.93307C17.8247 8.81586 17.6658 8.75001 17.5 8.75001ZM12.8641 15.625C12.7554 15.6749 12.6633 15.755 12.5988 15.8557C12.5343 15.9563 12.5 16.0734 12.5 16.193V16.875H7.5V16.1945C7.50031 16.0747 7.46615 15.9573 7.40161 15.8563C7.33706 15.7553 7.24484 15.675 7.13594 15.625C6.03681 15.1192 5.09006 14.3332 4.39071 13.3459C3.69136 12.3586 3.26401 11.2047 3.15156 10H16.8461C16.7339 11.2044 16.3069 12.3582 15.6079 13.3455C14.909 14.3328 13.9628 15.1189 12.8641 15.625ZM6.38828 4.29688C6.80625 3.77657 6.90938 3.42501 6.86641 3.27032C6.83359 3.15392 6.67812 3.09376 6.67656 3.09376C6.53509 3.04727 6.41486 2.95178 6.33754 2.82451C6.26022 2.69724 6.23088 2.54654 6.25482 2.39956C6.27875 2.25258 6.35437 2.11897 6.46808 2.0228C6.58178 1.92663 6.72608 1.87422 6.875 1.87501C6.93803 1.87508 7.0007 1.88456 7.06094 1.90313C7.13906 1.92735 7.83516 2.16329 8.06016 2.90001C8.25234 3.53048 8.01719 4.26329 7.36172 5.07892C6.94375 5.59923 6.84062 5.95079 6.88359 6.10548C6.91641 6.22188 7.06875 6.28048 7.07031 6.28126C7.21153 6.32767 7.33157 6.4229 7.40891 6.54984C7.48624 6.67678 7.5158 6.82714 7.49228 6.97391C7.46876 7.12068 7.3937 7.25426 7.28057 7.35068C7.16744 7.4471 7.02364 7.50005 6.875 7.50001C6.81197 7.49994 6.7493 7.49046 6.68906 7.47188C6.61094 7.44767 5.91484 7.21173 5.68984 6.47501C5.49766 5.84454 5.73281 5.11173 6.38828 4.29688ZM9.51328 4.29688C9.93125 3.77657 10.0344 3.42501 9.99141 3.27032C9.95859 3.15392 9.80312 3.09376 9.80156 3.09376C9.66009 3.04727 9.53986 2.95178 9.46254 2.82451C9.38522 2.69724 9.35588 2.54654 9.37982 2.39956C9.40375 2.25258 9.47937 2.11897 9.59308 2.0228C9.70678 1.92663 9.85108 1.87422 10 1.87501C10.063 1.87508 10.1257 1.88456 10.1859 1.90313C10.2641 1.92735 10.9602 2.16329 11.1852 2.90001C11.3773 3.53048 11.1422 4.26329 10.4867 5.07892C10.0687 5.59923 9.96562 5.95079 10.0086 6.10548C10.0414 6.22188 10.1938 6.28048 10.1953 6.28126C10.3365 6.32767 10.4566 6.4229 10.5339 6.54984C10.6112 6.67678 10.6408 6.82714 10.6173 6.97391C10.5938 7.12068 10.5187 7.25426 10.4056 7.35068C10.2924 7.4471 10.1486 7.50005 10 7.50001C9.93697 7.49994 9.8743 7.49046 9.81406 7.47188C9.73594 7.44767 9.03984 7.21173 8.81484 6.47501C8.62266 5.84454 8.85781 5.11173 9.51328 4.29688ZM12.6383 4.29688C13.0563 3.77657 13.1594 3.42501 13.1164 3.27032C13.0836 3.15392 12.9281 3.09376 12.9266 3.09376C12.7851 3.04727 12.6649 2.95178 12.5875 2.82451C12.5102 2.69724 12.4809 2.54654 12.5048 2.39956C12.5287 2.25258 12.6044 2.11897 12.7181 2.0228C12.8318 1.92663 12.9761 1.87422 13.125 1.87501C13.188 1.87508 13.2507 1.88456 13.3109 1.90313C13.3891 1.92735 14.0852 2.16329 14.3102 2.90001C14.5023 3.53048 14.2672 4.26329 13.6117 5.07892C13.1937 5.59923 13.0906 5.95079 13.1336 6.10548C13.1664 6.22188 13.3188 6.28048 13.3203 6.28126C13.4615 6.32767 13.5816 6.4229 13.6589 6.54984C13.7362 6.67678 13.7658 6.82714 13.7423 6.97391C13.7188 7.12068 13.6437 7.25426 13.5306 7.35068C13.4174 7.4471 13.2736 7.50005 13.125 7.50001C13.062 7.49994 12.9993 7.49046 12.9391 7.47188C12.8609 7.44767 12.1648 7.21173 11.9398 6.47501C11.7477 5.84454 11.9828 5.11173 12.6383 4.29688Z" fill="#F5C85C"/>
</svg>
