<svg width="20" height="20" viewBox="0 0 20 20" fill="none" xmlns="http://www.w3.org/2000/svg">
<path d="M2.5 8.125C2.5 7.95924 2.56585 7.80027 2.68306 7.68306C2.80027 7.56585 2.95924 7.5 3.125 7.5H4.375C4.54076 7.5 4.69973 7.56585 4.81694 7.68306C4.93415 7.80027 5 7.95924 5 8.125C5 8.29076 4.93415 8.44973 4.81694 8.56694C4.69973 8.68415 4.54076 8.75 4.375 8.75H3.125C2.95924 8.75 2.80027 8.68415 2.68306 8.56694C2.56585 8.44973 2.5 8.29076 2.5 8.125ZM5.58047 4.58984C5.69774 4.70712 5.8568 4.773 6.02266 4.773C6.18851 4.773 6.34757 4.70712 6.46484 4.58984C6.58212 4.47257 6.648 4.31351 6.648 4.14766C6.648 3.9818 6.58212 3.82274 6.46484 3.70547L5.58047 2.82187C5.46231 2.70961 5.30496 2.64795 5.14199 2.65004C4.97901 2.65212 4.8233 2.71779 4.70805 2.83304C4.59279 2.9483 4.52712 3.10401 4.52504 3.26699C4.52295 3.42996 4.58461 3.58731 4.69688 3.70547L5.58047 4.58984ZM10 3.125C10.1658 3.125 10.3247 3.05915 10.4419 2.94194C10.5592 2.82473 10.625 2.66576 10.625 2.5V1.25C10.625 1.08424 10.5592 0.925268 10.4419 0.808058C10.3247 0.690848 10.1658 0.625 10 0.625C9.83424 0.625 9.67527 0.690848 9.55806 0.808058C9.44085 0.925268 9.375 1.08424 9.375 1.25V2.5C9.375 2.66576 9.44085 2.82473 9.55806 2.94194C9.67527 3.05915 9.83424 3.125 10 3.125ZM13.9773 4.77266C14.0594 4.77272 14.1408 4.75661 14.2166 4.72524C14.2925 4.69387 14.3614 4.64787 14.4195 4.58984L15.3031 3.70547C15.4154 3.58731 15.477 3.42996 15.475 3.26699C15.4729 3.10401 15.4072 2.9483 15.292 2.83304C15.1767 2.71779 15.021 2.65212 14.858 2.65004C14.695 2.64795 14.5377 2.70961 14.4195 2.82187L13.5352 3.70547C13.4476 3.79288 13.388 3.90429 13.3639 4.02559C13.3397 4.14689 13.3521 4.27264 13.3995 4.3869C13.4468 4.50116 13.527 4.59881 13.6299 4.66748C13.7327 4.73615 13.8537 4.77275 13.9773 4.77266ZM15 8.125C15 8.29076 15.0658 8.44973 15.1831 8.56694C15.3003 8.68415 15.4592 8.75 15.625 8.75H16.875C17.0408 8.75 17.1997 8.68415 17.3169 8.56694C17.4342 8.44973 17.5 8.29076 17.5 8.125C17.5 7.95924 17.4342 7.80027 17.3169 7.68306C17.1997 7.56585 17.0408 7.5 16.875 7.5H15.625C15.4592 7.5 15.3003 7.56585 15.1831 7.68306C15.0658 7.80027 15 7.95924 15 8.125ZM6.875 8.75C7.04076 8.75 7.19973 8.68415 7.31694 8.56694C7.43415 8.44973 7.5 8.29076 7.5 8.125C7.5 7.46196 7.76339 6.82607 8.23223 6.35723C8.70107 5.88839 9.33696 5.625 10 5.625C10.663 5.625 11.2989 5.88839 11.7678 6.35723C12.2366 6.82607 12.5 7.46196 12.5 8.125C12.5 8.29076 12.5658 8.44973 12.6831 8.56694C12.8003 8.68415 12.9592 8.75 13.125 8.75C13.2908 8.75 13.4497 8.68415 13.5669 8.56694C13.6842 8.44973 13.75 8.29076 13.75 8.125C13.75 7.13044 13.3549 6.17661 12.6517 5.47335C11.9484 4.77009 10.9946 4.375 10 4.375C9.00544 4.375 8.05161 4.77009 7.34835 5.47335C6.64509 6.17661 6.25 7.13044 6.25 8.125C6.25 8.29076 6.31585 8.44973 6.43306 8.56694C6.55027 8.68415 6.70924 8.75 6.875 8.75ZM18.6648 17.1875C18.6101 17.2823 18.5314 17.3611 18.4367 17.4159C18.342 17.4708 18.2345 17.4998 18.125 17.5H1.875C1.7655 17.5005 1.65779 17.4722 1.56264 17.418C1.4675 17.3638 1.38828 17.2856 1.33289 17.1911C1.27751 17.0966 1.24792 16.9893 1.24708 16.8798C1.24625 16.7703 1.27419 16.6625 1.32813 16.5672L4.50703 10.9422C4.56176 10.8455 4.64128 10.7651 4.73741 10.7093C4.83353 10.6536 4.94278 10.6245 5.05391 10.625H14.9453C15.0564 10.6245 15.1657 10.6536 15.2618 10.7093C15.3579 10.7651 15.4375 10.8455 15.4922 10.9422L18.6711 16.5672C18.7241 16.6622 18.7515 16.7694 18.7504 16.8782C18.7493 16.987 18.7198 17.0936 18.6648 17.1875ZM14.5813 11.875H12.6773L12.9492 13.125H15.2875L14.5813 11.875ZM11.6703 13.125L11.3984 11.875H8.60156L8.32969 13.125H11.6703ZM8.05781 14.375L7.65078 16.25H12.3492L11.9422 14.375H8.05781ZM4.7125 13.125H7.05078L7.32266 11.875H5.41875L4.7125 13.125ZM2.94609 16.25H6.37109L6.77891 14.375H4.00625L2.94609 16.25ZM17.0539 16.25L15.9938 14.375H13.2211L13.6289 16.25H17.0539Z" fill="#F5C85C"/>
</svg>
